# xmcd
#
# Track frame offsets:
#	150
#	16470
#	32337
#
# Disc length: 838 seconds
#
# Revision: 0
# Processed by: cddbd v1.5.2PL0 Copyright (c) Steve Scherf et al.
# Submitted via: audiograbber 1.83.01
#
DISCID=16034403
DTITLE=Another Level - Bomb Diggy
DYEAR=1999
DGENRE=R&B
TTITLE0=Bomb Diggy (radio)
TTITLE1=Now She's Steady Callin'
TTITLE2=Bomb Diggy (Frankie's Summillenium club mix)
EXTD=
EXTT0=
EXTT1=
EXTT2=
PLAYORDER=
